<svg width="50" height="50" viewBox="0 0 50 50" fill="none" xmlns="http://www.w3.org/2000/svg">
<path d="M10.4167 24.9998V14.4165C10.4167 12.5309 10.4167 11.5881 11.0025 11.0023C11.5883 10.4165 12.5311 10.4165 14.4167 10.4165H21.2599C22.0774 10.4165 22.4861 10.4165 22.8537 10.5687C23.2212 10.721 23.5103 11.01 24.0883 11.5881L27.9952 15.4949C28.5732 16.073 28.8623 16.362 29.2298 16.5143C29.5973 16.6665 30.0061 16.6665 30.8236 16.6665H39.7501C41.6357 16.6665 42.5785 16.6665 43.1643 17.2523C43.7501 17.8381 43.7501 18.7809 43.7501 20.6665V35.5832C43.7501 37.4688 43.7501 38.4116 43.1643 38.9974C42.5785 39.5832 41.6357 39.5832 39.7501 39.5832H33.3334" stroke="#FCFCF7" stroke-width="4"/>
<path d="M8.33325 34.3752H27.0833M27.0833 34.3752L19.7916 27.0835M27.0833 34.3752L19.7916 41.6668" stroke="#FCFCF7" stroke-width="4"/>
</svg>
