<svg width="50" height="50" viewBox="0 0 50 50" fill="none" xmlns="http://www.w3.org/2000/svg">
<path d="M29.1668 4.16675H12.5002C11.3951 4.16675 10.3353 4.60573 9.55388 5.38714C8.77248 6.16854 8.3335 7.22835 8.3335 8.33341V41.6667C8.3335 42.7718 8.77248 43.8316 9.55388 44.613C10.3353 45.3944 11.3951 45.8334 12.5002 45.8334H37.5002C38.6052 45.8334 39.665 45.3944 40.4464 44.613C41.2278 43.8316 41.6668 42.7718 41.6668 41.6667V16.6667M29.1668 4.16675L41.6668 16.6667M29.1668 4.16675V16.6667H41.6668M33.3335 27.0834H16.6668M33.3335 35.4167H16.6668M20.8335 18.7501H16.6668" stroke="#FBF9F3" stroke-width="4" stroke-linecap="round" stroke-linejoin="round"/>
</svg>
